<svg width="24" height="22" viewBox="0 0 24 22" fill="none" xmlns="http://www.w3.org/2000/svg">
<path d="M3.40636 11.9175C2.83478 11.3613 2.38455 10.6928 2.08403 9.95402C1.78351 9.21526 1.63921 8.42228 1.66021 7.62502C1.68121 6.82775 1.86706 6.04347 2.20605 5.32156C2.54505 4.59965 3.02985 3.95575 3.62992 3.4304C4.22999 2.90506 4.93234 2.50965 5.69274 2.26909C6.45313 2.02852 7.2551 1.948 8.04814 2.03259C8.84118 2.11719 9.60812 2.36507 10.3007 2.76063C10.9932 3.15619 11.5963 3.69086 12.0721 4.33097C12.5499 3.69551 13.1537 3.16551 13.8458 2.77415C14.5378 2.38279 15.3032 2.13849 16.094 2.05653C16.8849 1.97458 17.6841 2.05674 18.4417 2.29787C19.1993 2.539 19.899 2.93391 20.4969 3.45789C21.0949 3.98186 21.5783 4.62362 21.9168 5.343C22.2553 6.06238 22.4417 6.84389 22.4643 7.63862C22.487 8.43335 22.3453 9.2242 22.0482 9.96166C21.7511 10.6991 21.305 11.3673 20.7378 11.9244" stroke="#39EAB4" stroke-width="2.5" stroke-linecap="round" stroke-linejoin="round"/>
</svg>
