<svg width="21" height="21" viewBox="0 0 21 21" fill="none" xmlns="http://www.w3.org/2000/svg">
<path d="M15.25 2.25H19.25C19.5152 2.25 19.7696 2.35536 19.9571 2.54289C20.1446 2.73043 20.25 2.98478 20.25 3.25V19.25C20.25 19.5152 20.1446 19.7696 19.9571 19.9571C19.7696 20.1446 19.5152 20.25 19.25 20.25H1.25C0.984784 20.25 0.73043 20.1446 0.542893 19.9571C0.355357 19.7696 0.25 19.5152 0.25 19.25V3.25C0.25 2.98478 0.355357 2.73043 0.542893 2.54289C0.73043 2.35536 0.984784 2.25 1.25 2.25H5.25V0.25H7.25V2.25H13.25V0.25H15.25V2.25ZM13.25 4.25H7.25V6.25H5.25V4.25H2.25V8.25H18.25V4.25H15.25V6.25H13.25V4.25ZM18.25 10.25H2.25V18.25H18.25V10.25Z" fill="white"/>
</svg>
