<svg width="15" height="16" viewBox="0 0 15 16" fill="none" xmlns="http://www.w3.org/2000/svg">
<path d="M3.54167 3.65198V1.45096C3.54167 1.25638 3.62507 1.06976 3.77354 0.932173C3.92201 0.794583 4.12337 0.717285 4.33333 0.717285H13.8333C14.0433 0.717285 14.2447 0.794583 14.3931 0.932173C14.5416 1.06976 14.625 1.25638 14.625 1.45096V11.7224C14.625 11.917 14.5416 12.1036 14.3931 12.2412C14.2447 12.3788 14.0433 12.4561 13.8333 12.4561H11.4583V14.6571C11.4583 15.0621 11.1021 15.3907 10.6611 15.3907H1.17221C1.06781 15.3913 0.964315 15.3728 0.867672 15.3362C0.771029 15.2996 0.683143 15.2456 0.609063 15.1775C0.534983 15.1093 0.476169 15.0282 0.436001 14.9389C0.395833 14.8496 0.375102 14.7538 0.375 14.6571L0.377375 4.38565C0.377375 3.98066 0.733625 3.65198 1.17458 3.65198H3.54167ZM1.96071 5.11932L1.95833 13.9234H9.875V5.11932H1.96071ZM5.125 3.65198H11.4583V10.9887H13.0417V2.18463H5.125V3.65198Z" fill="#39EAB4"/>
</svg>
