<svg width="22" height="20" viewBox="0 0 22 20" fill="none" xmlns="http://www.w3.org/2000/svg">
<path d="M1.12558 0.800537H20.0325C20.3111 0.800537 20.5782 0.911202 20.7752 1.10819C20.9722 1.30517 21.0829 1.57234 21.0829 1.85092V18.6571C21.0829 18.9356 20.9722 19.2028 20.7752 19.3998C20.5782 19.5968 20.3111 19.7075 20.0325 19.7075H1.12558C0.847 19.7075 0.579831 19.5968 0.382846 19.3998C0.18586 19.2028 0.0751953 18.9356 0.0751953 18.6571V1.85092C0.0751953 1.57234 0.18586 1.30517 0.382846 1.10819C0.579831 0.911202 0.847 0.800537 1.12558 0.800537ZM18.9821 5.25207L10.6547 12.7098L2.17596 5.22896V17.6067H18.9821V5.25207ZM2.71271 2.90131L10.6431 9.89896L18.459 2.90131H2.71271Z" fill="white"/>
</svg>
