<svg width="21" height="20" viewBox="0 0 21 20" fill="none" xmlns="http://www.w3.org/2000/svg">
<path d="M10.251 2.0727C12.6 -0.145773 16.23 -0.0721392 18.493 2.31254C20.755 4.69827 20.833 8.49776 18.729 10.9761L10.249 19.9089L1.77101 10.9761C-0.332994 8.49776 -0.253994 4.69196 2.00701 2.31254C4.272 -0.0689835 7.895 -0.148929 10.251 2.0727ZM17.077 3.79889C15.577 2.21892 13.157 2.15475 11.587 3.63794L10.252 4.89813L8.916 3.639C7.341 2.1537 4.926 2.21892 3.422 3.80099C1.93201 5.36833 1.85701 7.87714 3.23001 9.53495L10.25 16.9309L17.27 9.536C18.644 7.87714 18.569 5.37149 17.077 3.79889Z" fill="white"/>
</svg>
