<svg width="23" height="23" viewBox="0 0 23 23" fill="none" xmlns="http://www.w3.org/2000/svg">
<path d="M11.508 7.87788C10.6126 7.87788 9.75383 8.23359 9.12066 8.86676C8.4875 9.49993 8.13179 10.3587 8.13179 11.2541C8.13179 12.1496 8.4875 13.0083 9.12066 13.6415C9.75383 14.2746 10.6126 14.6304 11.508 14.6304C12.4035 14.6304 13.2622 14.2746 13.8954 13.6415C14.5286 13.0083 14.8843 12.1496 14.8843 11.2541C14.8843 10.3587 14.5286 9.49993 13.8954 8.86676C13.2622 8.23359 12.4035 7.87788 11.508 7.87788ZM11.508 5.62706C13.0004 5.62706 14.4317 6.21991 15.487 7.27519C16.5422 8.33046 17.1351 9.76173 17.1351 11.2541C17.1351 12.7465 16.5422 14.1778 15.487 15.233C14.4317 16.2883 13.0004 16.8812 11.508 16.8812C10.0156 16.8812 8.58437 16.2883 7.52909 15.233C6.47381 14.1778 5.88097 12.7465 5.88097 11.2541C5.88097 9.76173 6.47381 8.33046 7.52909 7.27519C8.58437 6.21991 10.0156 5.62706 11.508 5.62706ZM18.8232 5.34571C18.8232 5.7188 18.675 6.07662 18.4112 6.34044C18.1474 6.60426 17.7895 6.75247 17.4164 6.75247C17.0433 6.75247 16.6855 6.60426 16.4217 6.34044C16.1579 6.07662 16.0097 5.7188 16.0097 5.34571C16.0097 4.97261 16.1579 4.61479 16.4217 4.35097C16.6855 4.08715 17.0433 3.93894 17.4164 3.93894C17.7895 3.93894 18.1474 4.08715 18.4112 4.35097C18.675 4.61479 18.8232 4.97261 18.8232 5.34571ZM11.508 2.25082C8.72375 2.25082 8.26909 2.2587 6.97374 2.3161C6.09142 2.35774 5.49945 2.47591 4.95025 2.68973C4.46182 2.8788 4.10957 3.10501 3.7348 3.4809C3.38256 3.82122 3.11172 4.23671 2.94251 4.69634C2.72869 5.24779 2.61052 5.83864 2.57 6.71983C2.51148 7.96229 2.50473 8.3967 2.50473 11.2541C2.50473 14.0384 2.51261 14.4931 2.57 15.7884C2.61164 16.6696 2.72981 17.2627 2.94251 17.8108C3.13383 18.3003 3.35892 18.6526 3.73255 19.0262C4.11182 19.4044 4.46407 19.6306 4.948 19.8174C5.50395 20.0323 6.09592 20.1516 6.97374 20.1921C8.21619 20.2507 8.6506 20.2574 11.508 20.2574C14.2923 20.2574 14.747 20.2495 16.0423 20.1921C16.9224 20.1505 17.5155 20.0323 18.0647 19.8196C18.552 19.6294 18.9065 19.4032 19.2801 19.0296C19.6594 18.6503 19.8856 18.2981 20.0724 17.8141C20.2862 17.2593 20.4055 16.6662 20.446 15.7884C20.5046 14.5459 20.5113 14.1115 20.5113 11.2541C20.5113 8.46985 20.5034 8.01518 20.446 6.71983C20.4044 5.83976 20.2862 5.24554 20.0724 4.69634C19.9028 4.23718 19.6325 3.82185 19.2812 3.4809C18.9411 3.12847 18.5255 2.85761 18.0658 2.68861C17.5143 2.47478 16.9224 2.35661 16.0423 2.3161C14.7999 2.25758 14.3654 2.25082 11.508 2.25082ZM11.508 0C14.5658 0 14.9473 0.0112541 16.147 0.0675246C17.3455 0.123795 18.1615 0.311739 18.8795 0.590841C19.6222 0.876696 20.248 1.26384 20.8737 1.88844C21.446 2.45103 21.8888 3.13156 22.1713 3.88267C22.4493 4.59956 22.6383 5.41661 22.6946 6.61517C22.7475 7.81486 22.7621 8.19637 22.7621 11.2541C22.7621 14.3119 22.7509 14.6934 22.6946 15.8931C22.6383 17.0916 22.4493 17.9076 22.1713 18.6256C21.8896 19.3771 21.4467 20.0578 20.8737 20.6198C20.311 21.1919 19.6305 21.6346 18.8795 21.9174C18.1626 22.1954 17.3455 22.3844 16.147 22.4407C14.9473 22.4936 14.5658 22.5082 11.508 22.5082C8.45028 22.5082 8.06877 22.497 6.86908 22.4407C5.67051 22.3844 4.85459 22.1954 4.13658 21.9174C3.38517 21.6354 2.70452 21.1926 2.14235 20.6198C1.56997 20.0573 1.12715 19.3767 0.844748 18.6256C0.565645 17.9087 0.377701 17.0916 0.321431 15.8931C0.268537 14.6934 0.253906 14.3119 0.253906 11.2541C0.253906 8.19637 0.26516 7.81486 0.321431 6.61517C0.377701 5.41548 0.565645 4.60068 0.844748 3.88267C1.12637 3.1311 1.56929 2.45038 2.14235 1.88844C2.70468 1.31587 3.38528 0.873015 4.13658 0.590841C4.85459 0.311739 5.66939 0.123795 6.86908 0.0675246C8.06877 0.0146303 8.45028 0 11.508 0Z" fill="white"/>
</svg>
