<svg width="22" height="21" viewBox="0 0 22 21" fill="none" xmlns="http://www.w3.org/2000/svg">
<path d="M2.06096 0.125488H20.0675C20.366 0.125488 20.6523 0.244058 20.8633 0.455114C21.0744 0.666169 21.193 0.952422 21.193 1.2509V19.2575C21.193 19.556 21.0744 19.8422 20.8633 20.0533C20.6523 20.2643 20.366 20.3829 20.0675 20.3829H2.06096C1.76248 20.3829 1.47623 20.2643 1.26517 20.0533C1.05412 19.8422 0.935547 19.556 0.935547 19.2575V1.2509C0.935547 0.952422 1.05412 0.666169 1.26517 0.455114C1.47623 0.244058 1.76248 0.125488 2.06096 0.125488ZM3.18637 2.37631V18.1321H18.9421V2.37631H3.18637ZM5.9999 6.87796C5.55218 6.87796 5.1228 6.7001 4.80622 6.38352C4.48964 6.06694 4.31178 5.63756 4.31178 5.18984C4.31178 4.74212 4.48964 4.31274 4.80622 3.99616C5.1228 3.67958 5.55218 3.50172 5.9999 3.50172C6.44762 3.50172 6.877 3.67958 7.19358 3.99616C7.51016 4.31274 7.68802 4.74212 7.68802 5.18984C7.68802 5.63756 7.51016 6.06694 7.19358 6.38352C6.877 6.7001 6.44762 6.87796 5.9999 6.87796ZM4.87449 8.00337H7.12531V16.444H4.87449V8.00337ZM11.0643 8.4873C11.7215 7.85144 12.489 7.44066 13.3151 7.44066C15.6458 7.44066 17.254 9.33023 17.254 11.661V16.444H15.0032V11.661C15.0032 11.1386 14.7957 10.6377 14.4263 10.2683C14.057 9.89898 13.5561 9.69149 13.0337 9.69149C12.5114 9.69149 12.0104 9.89898 11.6411 10.2683C11.2717 10.6377 11.0643 11.1386 11.0643 11.661V16.444H8.81343V8.00337H11.0643V8.4873Z" fill="white"/>
</svg>
