<svg width="17" height="18" viewBox="0 0 17 18" fill="none" xmlns="http://www.w3.org/2000/svg">
<path d="M10.4447 14.0816L5.76056 11.5269C5.31093 11.9732 4.73922 12.2764 4.11752 12.3983C3.49581 12.5202 2.85194 12.4553 2.26708 12.2117C1.68221 11.9682 1.18254 11.557 0.831049 11.0299C0.47956 10.5028 0.291992 9.88344 0.291992 9.2499C0.291992 8.61636 0.47956 7.997 0.831049 7.46991C1.18254 6.94281 1.68221 6.53158 2.26708 6.28806C2.85194 6.04453 3.49581 5.97961 4.11752 6.10149C4.73922 6.22336 5.31093 6.52658 5.76056 6.9729L10.4447 4.41815C10.2841 3.66441 10.4001 2.87802 10.7716 2.2028C11.1431 1.52757 11.7452 1.00863 12.4679 0.740878C13.1906 0.473122 13.9855 0.474441 14.7072 0.744594C15.429 1.01475 16.0294 1.53568 16.3987 2.21213C16.7679 2.88858 16.8813 3.67535 16.7182 4.42856C16.555 5.18176 16.1262 5.85107 15.5101 6.31409C14.8941 6.77711 14.1319 7.0029 13.363 6.95016C12.5942 6.89743 11.87 6.5697 11.3229 6.0269L6.63873 8.58165C6.73217 9.02225 6.73217 9.47755 6.63873 9.91815L11.3229 12.4729C11.87 11.9301 12.5942 11.6024 13.363 11.5496C14.1319 11.4969 14.8941 11.7227 15.5101 12.1857C16.1262 12.6487 16.555 13.318 16.7182 14.0712C16.8813 14.8244 16.7679 15.6112 16.3987 16.2877C16.0294 16.9641 15.429 17.485 14.7072 17.7552C13.9855 18.0254 13.1906 18.0267 12.4679 17.7589C11.7452 17.4912 11.1431 16.9722 10.7716 16.297C10.4001 15.6218 10.2841 14.8354 10.4447 14.0816Z" fill="#39EAB4"/>
</svg>
