<svg width="24" height="23" viewBox="0 0 24 23" fill="none" xmlns="http://www.w3.org/2000/svg">
<path d="M12.094 22.5082C5.87831 22.5082 0.839844 17.4698 0.839844 11.2541C0.839844 5.03847 5.87831 0 12.094 0C18.3096 0 23.3481 5.03847 23.3481 11.2541C23.3481 17.4698 18.3096 22.5082 12.094 22.5082ZM9.51677 19.8826C8.40645 17.5275 7.76323 14.9795 7.6227 12.3795H3.16044C3.37943 14.1114 4.0967 15.7424 5.22509 17.0744C6.35348 18.4064 7.84442 19.382 9.51677 19.8826ZM9.8769 12.3795C10.0468 15.1244 10.8312 17.7027 12.094 19.9783C13.3908 17.6426 14.1483 15.0462 14.311 12.3795H9.8769ZM21.0275 12.3795H16.5652C16.4247 14.9795 15.7815 17.5275 14.6712 19.8826C16.3435 19.382 17.8344 18.4064 18.9628 17.0744C20.0912 15.7424 20.8085 14.1114 21.0275 12.3795ZM3.16044 10.1287H7.6227C7.76323 7.52876 8.40645 4.98072 9.51677 2.62559C7.84442 3.12626 6.35348 4.10185 5.22509 5.43382C4.0967 6.76579 3.37943 8.39681 3.16044 10.1287ZM9.87803 10.1287H14.3099C14.1476 7.46215 13.3904 4.86575 12.094 2.52993C10.7971 4.86566 10.0396 7.46207 9.8769 10.1287H9.87803ZM14.6712 2.62559C15.7815 4.98072 16.4247 7.52876 16.5652 10.1287H21.0275C20.8085 8.39681 20.0912 6.76579 18.9628 5.43382C17.8344 4.10185 16.3435 3.12626 14.6712 2.62559Z" fill="white"/>
</svg>
