<svg width="16" height="18" viewBox="0 0 16 18" fill="none" xmlns="http://www.w3.org/2000/svg">
<path d="M10.7792 15.5C10.1125 16.5 9.27916 17 8.27916 17C7.27916 17 6.44583 16.5 5.77916 15.5M13.3637 14H3.19464C2.28297 14 1.54392 13.261 1.54392 12.3493C1.54392 12.0501 1.62523 11.7565 1.77916 11.5C2.76068 9.86413 3.27916 7.99226 3.27916 6.08452V5C3.27916 2.79086 5.07002 1 7.27916 1H9.27916C11.4883 1 13.2792 2.79086 13.2792 5V6.08452C13.2792 7.99226 13.7976 9.86413 14.7792 11.5C15.2482 12.2817 14.9947 13.2957 14.213 13.7648C13.9564 13.9187 13.6629 14 13.3637 14V14Z" stroke="#C6C1E1" stroke-width="1.5" stroke-linecap="round" stroke-linejoin="round"/>
</svg>
