<svg width="18" height="13" viewBox="0 0 18 13" fill="none" xmlns="http://www.w3.org/2000/svg">
<path d="M1.18555 9.65175C1.18552 9.50353 1.23509 9.35987 1.32585 9.2451C1.41662 9.13034 1.54299 9.05154 1.68356 9.02205C2.24603 8.9033 2.75155 8.58745 3.11459 8.1279C3.47764 7.66836 3.67594 7.09334 3.67594 6.50011C3.67594 5.90689 3.47764 5.33187 3.11459 4.87233C2.75155 4.41278 2.24603 4.09692 1.68356 3.97818C1.54299 3.94869 1.41662 3.86989 1.32585 3.75512C1.23509 3.64036 1.18552 3.4967 1.18555 3.34848V1.35331C1.18555 1.18268 1.25114 1.01905 1.3679 0.898394C1.48466 0.777742 1.64302 0.709961 1.80814 0.709961H16.7505C16.9156 0.709961 17.074 0.777742 17.1907 0.898394C17.3075 1.01905 17.3731 1.18268 17.3731 1.35331V3.34848C17.3731 3.4967 17.3235 3.64036 17.2328 3.75513C17.142 3.86989 17.0156 3.94869 16.8751 3.97818C16.3126 4.09693 15.8071 4.41279 15.444 4.87233C15.081 5.33187 14.8827 5.90689 14.8827 6.50012C14.8827 7.09334 15.081 7.66836 15.444 8.12791C15.8071 8.58745 16.3126 8.90331 16.8751 9.02206C17.0156 9.05154 17.142 9.13034 17.2328 9.24511C17.3235 9.35987 17.3731 9.50353 17.3731 9.65175V11.6469C17.3731 11.8175 17.3075 11.9812 17.1907 12.1018C17.074 12.2225 16.9156 12.2903 16.7505 12.2903H1.80814C1.64302 12.2903 1.48466 12.2225 1.3679 12.1018C1.25114 11.9812 1.18555 11.8175 1.18555 11.6469V9.65175Z" stroke="white" stroke-linecap="round" stroke-linejoin="round"/>
</svg>
