<svg width="29" height="25" viewBox="0 0 29 25" fill="none" xmlns="http://www.w3.org/2000/svg">
<path d="M25.8306 22.5H28.3306V25H0.830566V22.5H3.33057V1.25C3.33057 0.918479 3.46226 0.600537 3.69668 0.366116C3.9311 0.131696 4.24905 0 4.58057 0H24.5806C24.9121 0 25.23 0.131696 25.4645 0.366116C25.6989 0.600537 25.8306 0.918479 25.8306 1.25V22.5ZM23.3306 22.5V2.5H5.83057V22.5H23.3306ZM9.58057 11.25H13.3306V13.75H9.58057V11.25ZM9.58057 6.25H13.3306V8.75H9.58057V6.25ZM9.58057 16.25H13.3306V18.75H9.58057V16.25ZM15.8306 16.25H19.5806V18.75H15.8306V16.25ZM15.8306 11.25H19.5806V13.75H15.8306V11.25ZM15.8306 6.25H19.5806V8.75H15.8306V6.25Z" fill="white"/>
</svg>
