<svg width="24" height="28" viewBox="0 0 24 28" fill="none" xmlns="http://www.w3.org/2000/svg">
<path d="M13.0444 17.2613V19.8738C11.9131 19.4738 10.7023 19.3511 9.51369 19.516C8.3251 19.6809 7.19343 20.1286 6.21372 20.8215C5.23401 21.5144 4.43486 22.4323 3.88339 23.4981C3.33191 24.5638 3.0442 25.7463 3.04443 26.9463L0.544434 26.945C0.544046 25.4186 0.893085 23.9124 1.56481 22.5418C2.23653 21.1711 3.21311 19.9725 4.4197 19.0376C5.6263 18.1027 7.0309 17.4565 8.52588 17.1483C10.0208 16.8402 11.5665 16.8784 13.0444 17.26V17.2613ZM10.5444 15.6963C6.40068 15.6963 3.04443 12.34 3.04443 8.19629C3.04443 4.05254 6.40068 0.696289 10.5444 0.696289C14.6882 0.696289 18.0444 4.05254 18.0444 8.19629C18.0444 12.34 14.6882 15.6963 10.5444 15.6963ZM10.5444 13.1963C13.3069 13.1963 15.5444 10.9588 15.5444 8.19629C15.5444 5.43379 13.3069 3.19629 10.5444 3.19629C7.78193 3.19629 5.54443 5.43379 5.54443 8.19629C5.54443 10.9588 7.78193 13.1963 10.5444 13.1963ZM17.7857 24.3388L22.2044 19.92L23.9732 21.6875L17.7857 27.875L13.3657 23.455L15.1344 21.6875L17.7844 24.3388H17.7857Z" fill="white"/>
</svg>
