<svg width="17" height="18" viewBox="0 0 17 18" fill="none" xmlns="http://www.w3.org/2000/svg">
<path d="M8.43478 0.877468C11.7632 0.877468 14.9239 0.581385 16.1311 3.67972C16.6298 4.95938 16.5574 6.6213 16.5574 9.00097C16.5574 11.0891 16.6243 13.0517 16.1311 14.3213C14.9266 17.4215 11.7403 17.1245 8.43662 17.1245C5.24937 17.1245 1.96311 17.4563 0.741198 14.3213C0.241613 13.0288 0.314947 11.3916 0.314947 9.00097C0.314947 5.82747 0.139864 3.77872 1.67895 2.24055C3.23728 0.682218 5.3447 0.877468 8.43845 0.877468H8.43478ZM9.16262 2.34139C2.21978 2.33038 1.33612 1.55855 1.82378 12.2808C1.99703 16.0731 4.88453 15.6569 8.43387 15.6569C14.9055 15.6569 15.0916 15.4717 15.0916 8.9973C15.0916 2.44772 14.5783 2.34505 9.16262 2.33955V2.34139ZM4.09895 3.6898C4.63703 3.6898 5.07337 4.12613 5.07337 4.66422C5.07337 5.2023 4.63703 5.63864 4.09895 5.63864C3.56087 5.63864 3.12453 5.2023 3.12453 4.66422C3.12453 4.12613 3.56087 3.6898 4.09895 3.6898ZM8.43478 4.82922C10.7384 4.82922 12.6056 6.69739 12.6056 9.00097C12.6056 11.3046 10.7384 13.1718 8.43478 13.1718C6.1312 13.1718 4.26486 11.3046 4.26486 9.00097C4.26486 6.69739 6.1312 4.82922 8.43478 4.82922ZM8.43478 6.29313C4.8552 6.29313 4.85062 11.7088 8.43478 11.7088C12.0135 11.7088 12.0189 6.29313 8.43478 6.29313Z" fill="white"/>
</svg>
