<svg width="26" height="26" viewBox="0 0 26 26" fill="none" xmlns="http://www.w3.org/2000/svg">
<path d="M6.26025 5.25V1.5C6.26025 1.16848 6.39195 0.850537 6.62637 0.616116C6.86079 0.381696 7.17873 0.25 7.51025 0.25H17.5103C17.8418 0.25 18.1597 0.381696 18.3941 0.616116C18.6286 0.850537 18.7603 1.16848 18.7603 1.5V5.25H23.7603C24.0918 5.25 24.4097 5.3817 24.6441 5.61612C24.8786 5.85054 25.0103 6.16848 25.0103 6.5V24C25.0103 24.3315 24.8786 24.6495 24.6441 24.8839C24.4097 25.1183 24.0918 25.25 23.7603 25.25H1.26025C0.928733 25.25 0.610791 25.1183 0.37637 24.8839C0.14195 24.6495 0.0102539 24.3315 0.0102539 24V6.5C0.0102539 6.16848 0.14195 5.85054 0.37637 5.61612C0.610791 5.3817 0.928733 5.25 1.26025 5.25H6.26025ZM22.5103 15.25H2.51025V22.75H22.5103V15.25ZM22.5103 7.75H2.51025V12.75H6.26025V10.25H8.76025V12.75H16.2603V10.25H18.7603V12.75H22.5103V7.75ZM8.76025 2.75V5.25H16.2603V2.75H8.76025Z" fill="white"/>
</svg>
