<svg width="24" height="28" viewBox="0 0 24 28" fill="none" xmlns="http://www.w3.org/2000/svg">
<path d="M11.8315 24.1249L18.0191 17.9374C19.2427 16.7137 20.0759 15.1546 20.4135 13.4572C20.751 11.7599 20.5777 10.0006 19.9154 8.40185C19.2531 6.80305 18.1316 5.43654 16.6927 4.47511C15.2538 3.51369 13.5621 3.00053 11.8315 3.00053C10.101 3.00053 8.40931 3.51369 6.9704 4.47511C5.53149 5.43654 4.40998 6.80305 3.74769 8.40185C3.08539 10.0006 2.91206 11.7599 3.24961 13.4572C3.58716 15.1546 4.42043 16.7137 5.64405 17.9374L11.8315 24.1249ZM11.8315 27.6599L3.87655 19.7049C2.30322 18.1316 1.23178 16.127 0.797704 13.9447C0.363631 11.7624 0.586427 9.50044 1.43792 7.44478C2.28941 5.38912 3.73135 3.63212 5.5814 2.39596C7.43145 1.1598 9.60651 0.5 11.8315 0.5C14.0566 0.5 16.2316 1.1598 18.0817 2.39596C19.9317 3.63212 21.3737 5.38912 22.2252 7.44478C23.0767 9.50044 23.2995 11.7624 22.8654 13.9447C22.4313 16.127 21.3599 18.1316 19.7866 19.7049L11.8315 27.6599ZM11.8315 14.2499C12.4946 14.2499 13.1305 13.9865 13.5993 13.5177C14.0682 13.0488 14.3315 12.4129 14.3315 11.7499C14.3315 11.0869 14.0682 10.451 13.5993 9.98214C13.1305 9.5133 12.4946 9.2499 11.8315 9.2499C11.1685 9.2499 10.5326 9.5133 10.0638 9.98214C9.59494 10.451 9.33155 11.0869 9.33155 11.7499C9.33155 12.4129 9.59494 13.0488 10.0638 13.5177C10.5326 13.9865 11.1685 14.2499 11.8315 14.2499ZM11.8315 16.7499C10.5055 16.7499 9.2337 16.2231 8.29601 15.2854C7.35833 14.3478 6.83155 13.076 6.83155 11.7499C6.83155 10.4238 7.35833 9.15205 8.29601 8.21437C9.2337 7.27669 10.5055 6.7499 11.8315 6.7499C13.1576 6.7499 14.4294 7.27669 15.3671 8.21437C16.3048 9.15205 16.8315 10.4238 16.8315 11.7499C16.8315 13.076 16.3048 14.3478 15.3671 15.2854C14.4294 16.2231 13.1576 16.7499 11.8315 16.7499Z" fill="white"/>
</svg>
