<svg width="20" height="20" viewBox="0 0 20 20" fill="none" xmlns="http://www.w3.org/2000/svg">
<path d="M15.832 13.4179L14.4653 12.0492L15.832 10.6824C16.284 10.2343 16.6431 9.70142 16.8886 9.11421C17.1341 8.52701 17.2612 7.8971 17.2626 7.26065C17.264 6.6242 17.1396 5.99374 16.8967 5.40546C16.6538 4.81719 16.2971 4.28269 15.847 3.83265C15.397 3.38261 14.8625 3.02589 14.2742 2.78297C13.686 2.54006 13.0555 2.41573 12.419 2.41712C11.7826 2.41852 11.1527 2.54561 10.5655 2.7911C9.97827 3.03659 9.44534 3.39564 8.99727 3.84765L7.63051 5.21538L6.26279 3.84862L7.63148 2.48186C8.90044 1.2129 10.6215 0.5 12.4161 0.5C14.2107 0.5 15.9318 1.2129 17.2007 2.48186C18.4697 3.75082 19.1826 5.4719 19.1826 7.26648C19.1826 9.06106 18.4697 10.7821 17.2007 12.0511L15.833 13.4179H15.832ZM13.0985 16.1514L11.7308 17.5181C10.4618 18.7871 8.74075 19.5 6.94617 19.5C5.15159 19.5 3.43051 18.7871 2.16154 17.5181C0.892583 16.2492 0.179688 14.5281 0.179688 12.7335C0.179687 10.9389 0.892583 9.21786 2.16154 7.94889L3.52927 6.58213L4.89603 7.95083L3.52927 9.31758C3.07726 9.76565 2.71821 10.2986 2.47272 10.8858C2.22723 11.473 2.10014 12.1029 2.09874 12.7394C2.09735 13.3758 2.22168 14.0063 2.4646 14.5945C2.70751 15.1828 3.06423 15.7173 3.51427 16.1673C3.96431 16.6174 4.49881 16.9741 5.08708 17.217C5.67536 17.4599 6.30582 17.5843 6.94227 17.5829C7.57872 17.5815 8.20863 17.4544 8.79583 17.2089C9.38303 16.9634 9.91597 16.6044 10.364 16.1523L11.7308 14.7856L13.0985 16.1523V16.1514ZM12.4142 5.89875L13.7819 7.26648L6.94713 14.1003L5.57941 12.7335L12.4142 5.89972V5.89875Z" fill="#171429"/>
</svg>
