<svg width="21" height="18" viewBox="0 0 21 18" fill="none" xmlns="http://www.w3.org/2000/svg">
<path d="M6.49816 18.0003C14.1944 18.0003 18.403 11.4102 18.403 5.69573C18.403 5.50854 18.3993 5.32216 18.3912 5.13673C19.208 4.52628 19.9182 3.76449 20.4783 2.89736C19.7287 3.24183 18.9218 3.47357 18.0755 3.57826C18.9393 3.04274 19.6026 2.19588 19.9154 1.18628C19.1069 1.68159 18.2116 2.0415 17.2585 2.23593C16.495 1.39534 15.4079 0.869629 14.2042 0.869629C11.8936 0.869629 10.0198 2.80634 10.0198 5.19366C10.0198 5.53315 10.0566 5.86314 10.1283 6.17979C6.65079 5.99887 3.5671 4.27814 1.50363 1.66133C1.14437 2.30041 0.93712 3.0429 0.93712 3.83509C0.93712 5.33534 1.67587 6.65999 2.7991 7.4348C2.11262 7.41293 1.46785 7.21818 0.904134 6.89398C0.903512 6.91215 0.903512 6.92984 0.903512 6.94914C0.903512 9.04361 2.3457 10.7923 4.26042 11.1886C3.90878 11.2875 3.53878 11.3407 3.15712 11.3407C2.88794 11.3407 2.62561 11.3134 2.37059 11.2627C2.90334 12.981 4.44807 14.2314 6.27939 14.2665C4.84732 15.4266 3.04322 16.1176 1.0826 16.1176C0.745274 16.1176 0.411995 16.0977 0.0844727 16.0578C1.93618 17.2845 4.13517 18.0005 6.49831 18.0005" fill="#1DA1F2"/>
</svg>
