<svg width="21" height="21" viewBox="0 0 21 21" fill="none" xmlns="http://www.w3.org/2000/svg">
<path d="M10.4326 21C4.90962 21 0.432617 16.2991 0.432617 10.5C0.432617 4.70085 4.90962 0 10.4326 0C15.9556 0 20.4326 4.70085 20.4326 10.5C20.4326 16.2991 15.9556 21 10.4326 21ZM8.14262 18.5503C7.15603 16.353 6.58449 13.9757 6.45962 11.55H2.49462C2.6892 13.1658 3.32654 14.6876 4.32919 15.9303C5.33183 17.173 6.65663 18.0832 8.14262 18.5503ZM8.46262 11.55C8.61362 14.1109 9.31062 16.5165 10.4326 18.6396C11.5849 16.4604 12.2581 14.038 12.4026 11.55H8.46262ZM18.3706 11.55H14.4056C14.2807 13.9757 13.7092 16.353 12.7226 18.5503C14.2086 18.0832 15.5334 17.173 16.536 15.9303C17.5387 14.6876 18.176 13.1658 18.3706 11.55ZM2.49462 9.45H6.45962C6.58449 7.02427 7.15603 4.64697 8.14262 2.44965C6.65663 2.91677 5.33183 3.82699 4.32919 5.06971C3.32654 6.31243 2.6892 7.83416 2.49462 9.45ZM8.46362 9.45H12.4016C12.2574 6.96213 11.5846 4.53971 10.4326 2.3604C9.2803 4.53962 8.60717 6.96205 8.46262 9.45H8.46362ZM12.7226 2.44965C13.7092 4.64697 14.2807 7.02427 14.4056 9.45H18.3706C18.176 7.83416 17.5387 6.31243 16.536 5.06971C15.5334 3.82699 14.2086 2.91677 12.7226 2.44965Z" fill="white"/>
</svg>
