<svg width="24" height="20" viewBox="0 0 24 20" fill="none" xmlns="http://www.w3.org/2000/svg">
<path d="M16.3627 2.99519C15.5074 2.99505 14.6861 3.3307 14.0758 3.92992C13.4654 4.52914 13.1147 5.34403 13.099 6.19924L13.0675 7.97176C13.0657 8.06693 13.0437 8.16063 13.0031 8.24673C12.9625 8.33282 12.9042 8.40935 12.8319 8.47131C12.7596 8.53326 12.6751 8.57924 12.5838 8.60623C12.4925 8.63321 12.3966 8.64059 12.3022 8.62788L10.5455 8.38929C8.23387 8.07417 6.01906 7.00953 3.89428 5.23926C3.22128 8.96438 4.53577 11.5449 7.70155 13.5358L9.66764 14.7715C9.76106 14.8302 9.83867 14.9109 9.89368 15.0065C9.94869 15.1022 9.97943 15.2099 9.9832 15.3201C9.98698 15.4304 9.96368 15.5399 9.91534 15.6391C9.867 15.7383 9.79509 15.8241 9.70591 15.889L7.91425 17.1979C8.98002 17.2643 9.99176 17.217 10.8313 17.0505C16.141 15.9903 19.6714 11.9951 19.6714 5.4047C19.6714 4.86675 18.5325 2.99519 16.3627 2.99519ZM10.8482 6.1576C10.8678 5.07276 11.2071 4.01782 11.8234 3.12486C12.4398 2.23191 13.3059 1.54062 14.3132 1.13755C15.3206 0.73448 16.4245 0.637543 17.4867 0.858875C18.5489 1.08021 19.5222 1.60997 20.2848 2.38184C21.0849 2.37621 21.7658 2.57879 23.2885 1.65595C22.9115 3.50163 22.7258 4.30292 21.9222 5.4047C21.9222 14.0051 16.6362 18.1871 11.2725 19.2574C7.59463 19.9912 2.24668 18.7858 0.713867 17.1855C1.4949 17.1247 4.66856 16.7837 6.50298 15.4411C4.95104 14.4181 -1.22634 10.783 2.83302 1.00996C4.73834 3.2349 6.67067 4.74971 8.62889 5.55325C9.93211 6.08782 10.2517 6.07657 10.8493 6.15872L10.8482 6.1576Z" fill="white"/>
</svg>
